<mxfile host="app.diagrams.net" agent="Mozilla/5.0 (Windows NT 10.0; Win64; x64) AppleWebKit/537.36 (KHTML, like Gecko) Chrome/128.0.0.0 Safari/537.36" version="24.7.8">
  <diagram id="C5RBs43oDa-KdzZeNtuy" name="Page-1">
    <mxGraphModel dx="1195" dy="643" grid="1" gridSize="10" guides="1" tooltips="1" connect="1" arrows="1" fold="1" page="1" pageScale="1" pageWidth="827" pageHeight="1169" math="0" shadow="0">
      <root>
        <mxCell id="WIyWlLk6GJQsqaUBKTNV-0" />
        <mxCell id="WIyWlLk6GJQsqaUBKTNV-1" parent="WIyWlLk6GJQsqaUBKTNV-0" />
        <mxCell id="0ke_-zg6Od9k7sk2GXXR-4" style="edgeStyle=orthogonalEdgeStyle;rounded=0;orthogonalLoop=1;jettySize=auto;html=1;exitX=1;exitY=0.5;exitDx=0;exitDy=0;entryX=0;entryY=0.5;entryDx=0;entryDy=0;" parent="WIyWlLk6GJQsqaUBKTNV-1" source="0ke_-zg6Od9k7sk2GXXR-0" target="0ke_-zg6Od9k7sk2GXXR-2" edge="1">
          <mxGeometry relative="1" as="geometry" />
        </mxCell>
        <mxCell id="0ke_-zg6Od9k7sk2GXXR-0" value="Users-CSV" style="shape=document;whiteSpace=wrap;html=1;boundedLbl=1;" parent="WIyWlLk6GJQsqaUBKTNV-1" vertex="1">
          <mxGeometry x="70" y="60" width="120" height="80" as="geometry" />
        </mxCell>
        <mxCell id="0ke_-zg6Od9k7sk2GXXR-5" style="edgeStyle=orthogonalEdgeStyle;rounded=0;orthogonalLoop=1;jettySize=auto;html=1;exitX=1;exitY=0.5;exitDx=0;exitDy=0;entryX=0;entryY=0.5;entryDx=0;entryDy=0;" parent="WIyWlLk6GJQsqaUBKTNV-1" source="0ke_-zg6Od9k7sk2GXXR-1" target="0ke_-zg6Od9k7sk2GXXR-2" edge="1">
          <mxGeometry relative="1" as="geometry" />
        </mxCell>
        <mxCell id="vTGfvoWOQIhUlw-z9WOT-0" value="REST" style="edgeLabel;html=1;align=center;verticalAlign=middle;resizable=0;points=[];" vertex="1" connectable="0" parent="0ke_-zg6Od9k7sk2GXXR-5">
          <mxGeometry x="0.6062" y="2" relative="1" as="geometry">
            <mxPoint as="offset" />
          </mxGeometry>
        </mxCell>
        <mxCell id="0ke_-zg6Od9k7sk2GXXR-1" value="Roles-CSV" style="shape=document;whiteSpace=wrap;html=1;boundedLbl=1;" parent="WIyWlLk6GJQsqaUBKTNV-1" vertex="1">
          <mxGeometry x="70" y="160" width="120" height="80" as="geometry" />
        </mxCell>
        <mxCell id="0ke_-zg6Od9k7sk2GXXR-2" value="Spring Boot" style="rounded=0;whiteSpace=wrap;html=1;" parent="WIyWlLk6GJQsqaUBKTNV-1" vertex="1">
          <mxGeometry x="300" y="60" width="250" height="180" as="geometry" />
        </mxCell>
        <mxCell id="0ke_-zg6Od9k7sk2GXXR-3" value="Database" style="strokeWidth=2;html=1;shape=mxgraph.flowchart.database;whiteSpace=wrap;" parent="WIyWlLk6GJQsqaUBKTNV-1" vertex="1">
          <mxGeometry x="395" y="270" width="60" height="60" as="geometry" />
        </mxCell>
        <mxCell id="vTGfvoWOQIhUlw-z9WOT-1" style="edgeStyle=orthogonalEdgeStyle;rounded=0;orthogonalLoop=1;jettySize=auto;html=1;exitX=0.5;exitY=1;exitDx=0;exitDy=0;entryX=0.5;entryY=0;entryDx=0;entryDy=0;entryPerimeter=0;" edge="1" parent="WIyWlLk6GJQsqaUBKTNV-1" source="0ke_-zg6Od9k7sk2GXXR-2" target="0ke_-zg6Od9k7sk2GXXR-3">
          <mxGeometry relative="1" as="geometry" />
        </mxCell>
        <mxCell id="vTGfvoWOQIhUlw-z9WOT-2" value="User Representation 1" style="strokeWidth=2;html=1;shape=mxgraph.flowchart.document2;whiteSpace=wrap;size=0.25;" vertex="1" parent="WIyWlLk6GJQsqaUBKTNV-1">
          <mxGeometry x="650" y="60" width="100" height="60" as="geometry" />
        </mxCell>
        <mxCell id="vTGfvoWOQIhUlw-z9WOT-3" value="User Representation n" style="strokeWidth=2;html=1;shape=mxgraph.flowchart.document2;whiteSpace=wrap;size=0.25;" vertex="1" parent="WIyWlLk6GJQsqaUBKTNV-1">
          <mxGeometry x="650" y="180" width="100" height="60" as="geometry" />
        </mxCell>
        <mxCell id="vTGfvoWOQIhUlw-z9WOT-4" value="..." style="text;html=1;align=center;verticalAlign=middle;resizable=0;points=[];autosize=1;strokeColor=none;fillColor=none;fontSize=30;" vertex="1" parent="WIyWlLk6GJQsqaUBKTNV-1">
          <mxGeometry x="675" y="115" width="50" height="50" as="geometry" />
        </mxCell>
        <mxCell id="vTGfvoWOQIhUlw-z9WOT-5" value="Import" style="text;html=1;align=center;verticalAlign=middle;resizable=0;points=[];autosize=1;strokeColor=none;fillColor=none;fontSize=36;" vertex="1" parent="WIyWlLk6GJQsqaUBKTNV-1">
          <mxGeometry x="65" width="130" height="60" as="geometry" />
        </mxCell>
        <mxCell id="vTGfvoWOQIhUlw-z9WOT-6" value="Transformation" style="text;html=1;align=center;verticalAlign=middle;resizable=0;points=[];autosize=1;strokeColor=none;fillColor=none;fontSize=36;" vertex="1" parent="WIyWlLk6GJQsqaUBKTNV-1">
          <mxGeometry x="295" width="260" height="60" as="geometry" />
        </mxCell>
        <mxCell id="vTGfvoWOQIhUlw-z9WOT-7" value="Export" style="text;html=1;align=center;verticalAlign=middle;resizable=0;points=[];autosize=1;strokeColor=none;fillColor=none;fontSize=36;" vertex="1" parent="WIyWlLk6GJQsqaUBKTNV-1">
          <mxGeometry x="635" width="130" height="60" as="geometry" />
        </mxCell>
        <mxCell id="vTGfvoWOQIhUlw-z9WOT-8" style="edgeStyle=orthogonalEdgeStyle;rounded=0;orthogonalLoop=1;jettySize=auto;html=1;exitX=1;exitY=0.5;exitDx=0;exitDy=0;entryX=0;entryY=0.5;entryDx=0;entryDy=0;entryPerimeter=0;" edge="1" parent="WIyWlLk6GJQsqaUBKTNV-1" source="0ke_-zg6Od9k7sk2GXXR-2" target="vTGfvoWOQIhUlw-z9WOT-2">
          <mxGeometry relative="1" as="geometry" />
        </mxCell>
        <mxCell id="vTGfvoWOQIhUlw-z9WOT-9" style="edgeStyle=orthogonalEdgeStyle;rounded=0;orthogonalLoop=1;jettySize=auto;html=1;exitX=1;exitY=0.5;exitDx=0;exitDy=0;entryX=0;entryY=0.5;entryDx=0;entryDy=0;entryPerimeter=0;" edge="1" parent="WIyWlLk6GJQsqaUBKTNV-1" source="0ke_-zg6Od9k7sk2GXXR-2" target="vTGfvoWOQIhUlw-z9WOT-3">
          <mxGeometry relative="1" as="geometry" />
        </mxCell>
        <mxCell id="vTGfvoWOQIhUlw-z9WOT-10" value="REST" style="edgeLabel;html=1;align=center;verticalAlign=middle;resizable=0;points=[];" vertex="1" connectable="0" parent="vTGfvoWOQIhUlw-z9WOT-9">
          <mxGeometry x="-0.6667" y="1" relative="1" as="geometry">
            <mxPoint y="1" as="offset" />
          </mxGeometry>
        </mxCell>
      </root>
    </mxGraphModel>
  </diagram>
</mxfile>
